<svg width="24" height="24" viewBox="0 0 24 24" fill="none" xmlns="http://www.w3.org/2000/svg">
<path fill-rule="evenodd" clip-rule="evenodd" d="M2.23145 8L4.74573 20H19.2547L21.769 8H2.23145Z" stroke="currentColor" stroke-width="2"></path>
<path d="M18.2929 8.70711C18.6834 9.09763 19.3166 9.09763 19.7071 8.70711C20.0976 8.31658 20.0976 7.68342 19.7071 7.29289L18.2929 8.70711ZM15.7071 3.29289L15 2.58579L13.5858 4L14.2929 4.70711L15.7071 3.29289ZM19.7071 7.29289L15.7071 3.29289L14.2929 4.70711L18.2929 8.70711L19.7071 7.29289Z" fill="black"></path>
<path d="M5.70711 8.70711C5.31658 9.09763 4.68342 9.09763 4.29289 8.70711C3.90237 8.31658 3.90237 7.68342 4.29289 7.29289L5.70711 8.70711ZM8.29289 3.29289L9 2.58579L10.4142 4L9.70711 4.70711L8.29289 3.29289ZM4.29289 7.29289L8.29289 3.29289L9.70711 4.70711L5.70711 8.70711L4.29289 7.29289Z" fill="CurrentColor"></path>
</svg>
