<?xml version="1.0" encoding="UTF-8"?>
<svg xmlns="http://www.w3.org/2000/svg" xmlns:xlink="http://www.w3.org/1999/xlink" width="50px" height="53px" viewBox="0 0 50 53" version="1.1">
<g id="surface1">
<path style=" stroke:none;fill-rule:nonzero;fill:rgb(0%,0%,0%);fill-opacity:1;" d="M 18.316406 8.6875 C 17.691406 8.929688 16.777344 9.023438 16.296875 8.882812 C 15.769531 8.6875 15.046875 8.976562 14.375 9.648438 C 13.125 10.898438 13.367188 13.347656 14.902344 15.457031 C 15.433594 16.179688 15.867188 16.851562 15.867188 16.945312 C 15.867188 17.042969 14.902344 17.761719 13.703125 18.53125 C 12.453125 19.300781 10.816406 20.929688 9.953125 22.273438 L 8.414062 24.675781 L 8.269531 32.40625 C 8.125 39.796875 8.125 40.132812 9.230469 41.71875 C 11.441406 44.984375 12.355469 45.367188 19.230469 45.511719 C 26.296875 45.703125 28.171875 45.175781 29.953125 42.4375 L 31.007812 40.804688 L 35.382812 40.804688 C 39.328125 40.804688 39.902344 40.710938 41.007812 39.652344 C 42.742188 38.070312 42.882812 37.109375 42.691406 29.667969 C 42.546875 23.523438 42.5 23.089844 41.203125 21.171875 C 40.433594 20.066406 39.085938 18.675781 38.125 18.148438 C 36.730469 17.28125 36.585938 17.042969 37.210938 16.707031 C 39.230469 15.601562 40.144531 10.800781 38.605469 9.554688 C 37.597656 8.6875 34.132812 8.402344 30.527344 8.832031 C 29.757812 8.929688 28.847656 9.023438 28.507812 9.074219 C 26.632812 9.265625 26.828125 13.96875 28.796875 16.035156 L 29.808594 17.089844 L 28.367188 18.148438 L 26.972656 19.203125 L 25.242188 18.195312 L 23.558594 17.1875 L 24.566406 15.746094 C 25.144531 14.976562 25.722656 13.394531 25.816406 12.289062 C 26.105469 9.9375 25.335938 9.023438 22.933594 8.832031 C 22.066406 8.785156 20.960938 8.59375 20.433594 8.449219 C 19.902344 8.304688 18.941406 8.402344 18.316406 8.6875 Z M 21.203125 10.65625 C 21.921875 11.425781 22.308594 11.570312 22.453125 11.136719 C 22.789062 10.226562 24.375 10.464844 24.664062 11.472656 C 24.953125 12.625 23.507812 15.074219 21.921875 16.128906 C 19.328125 17.8125 15.625 15.746094 15.046875 12.289062 C 14.757812 10.417969 15.191406 10.128906 16.828125 11.136719 C 17.644531 11.664062 17.882812 11.570312 18.507812 10.65625 C 19.472656 9.3125 19.902344 9.3125 21.203125 10.65625 Z M 34.664062 10.65625 C 35.382812 11.425781 35.769531 11.570312 35.914062 11.136719 C 36.203125 10.320312 37.933594 10.417969 38.269531 11.234375 C 38.652344 12.195312 37.308594 14.59375 35.722656 15.84375 C 33.078125 17.90625 29.132812 15.9375 28.507812 12.335938 C 28.269531 10.753906 28.367188 10.5625 29.277344 10.5625 C 29.808594 10.5625 30.289062 10.753906 30.289062 11.042969 C 30.289062 11.859375 31.492188 11.570312 32.117188 10.5625 C 32.882812 9.3125 33.367188 9.363281 34.664062 10.65625 Z M 22.5 20.546875 C 23.171875 21.746094 23.75 23.761719 23.894531 25.445312 C 24.085938 27.554688 24.375 28.324219 24.902344 28.324219 C 25.480469 28.324219 25.578125 27.84375 25.289062 25.636719 C 25.144531 24.195312 24.664062 22.179688 24.277344 21.265625 C 23.847656 20.308594 23.652344 19.441406 23.796875 19.300781 C 24.421875 18.625 27.789062 21.699219 28.992188 24.050781 C 30.191406 26.5 30.289062 27.074219 30.289062 32.789062 C 30.289062 39.414062 30 40.566406 27.644531 42.726562 C 26.394531 43.878906 26.152344 43.925781 19.710938 43.925781 C 13.269531 43.925781 13.027344 43.878906 11.777344 42.726562 C 9.664062 40.804688 9.132812 38.933594 9.132812 33.363281 C 9.132812 26.210938 9.710938 24.339844 12.789062 21.265625 C 15.769531 18.242188 16.585938 18.050781 15.527344 20.5 C 14.519531 22.949219 13.941406 28.324219 14.710938 28.324219 C 15.046875 28.324219 15.433594 27.171875 15.625 25.585938 C 16.058594 22.226562 16.585938 20.738281 17.933594 19.300781 C 19.519531 17.617188 21.152344 18.050781 22.5 20.546875 Z M 35.242188 20.066406 C 35.816406 21.074219 36.296875 22.949219 36.441406 25.011719 C 36.585938 27.363281 36.875 28.324219 37.308594 28.324219 C 38.316406 28.324219 37.980469 23.761719 36.730469 19.730469 L 36.394531 18.53125 L 37.882812 19.585938 C 38.703125 20.164062 39.855469 21.460938 40.480469 22.46875 C 41.492188 24.101562 41.585938 24.773438 41.585938 30.582031 C 41.585938 36.871094 41.585938 36.964844 40.242188 38.261719 C 39.039062 39.511719 38.605469 39.605469 35.289062 39.605469 L 31.632812 39.605469 L 31.683594 33.84375 C 31.730469 30.675781 31.492188 27.21875 31.203125 26.164062 C 30.382812 23.425781 30.480469 20.882812 31.441406 19.441406 C 32.546875 17.761719 34.039062 18.050781 35.242188 20.066406 Z M 29.953125 19.683594 C 29.617188 20.929688 29.039062 21.316406 28.558594 20.59375 C 28.367188 20.257812 28.605469 19.730469 29.085938 19.347656 C 30.242188 18.53125 30.242188 18.53125 29.953125 19.683594 Z M 29.953125 19.683594 "/>
<path style=" stroke:none;fill-rule:nonzero;fill:rgb(0%,0%,0%);fill-opacity:1;" d="M 17.789062 30.003906 C 17.5 30.386719 17.355469 30.917969 17.546875 31.203125 C 17.742188 31.492188 17.257812 31.683594 16.394531 31.683594 C 14.855469 31.683594 13.941406 32.550781 14.855469 33.078125 C 15.242188 33.316406 15.191406 33.84375 14.664062 34.949219 C 14.085938 36.101562 13.992188 36.675781 14.421875 37.445312 C 15.046875 38.597656 17.308594 38.789062 17.308594 37.6875 C 17.308594 37.300781 16.972656 36.964844 16.585938 36.964844 C 15.722656 36.964844 15.625 35.71875 16.492188 35.1875 C 16.777344 34.996094 17.5 34.902344 17.980469 34.996094 C 18.75 35.09375 18.847656 34.902344 18.605469 33.414062 C 18.222656 31.011719 19.421875 30.050781 20.722656 31.683594 C 21.828125 33.125 21.875 33.605469 20.914062 33.605469 C 20.527344 33.605469 20.191406 33.941406 20.191406 34.324219 C 20.191406 34.804688 20.671875 35.046875 21.632812 35.046875 C 22.742188 35.046875 23.078125 35.238281 23.078125 36.003906 C 23.078125 36.726562 22.742188 36.964844 21.875 36.964844 C 21.105469 36.964844 20.671875 36.675781 20.671875 36.246094 C 20.671875 35.238281 19.566406 35.332031 18.605469 36.390625 C 17.546875 37.542969 17.597656 37.734375 18.796875 39.414062 C 19.855469 40.902344 20.914062 40.855469 20.527344 39.316406 C 20.335938 38.550781 20.578125 38.40625 22.117188 38.40625 C 24.375 38.40625 25.097656 37.445312 24.421875 35.476562 C 24.132812 34.566406 24.132812 33.84375 24.519531 33.078125 C 25 32.261719 24.953125 31.972656 24.472656 31.636719 C 24.132812 31.445312 23.652344 31.398438 23.460938 31.492188 C 23.222656 31.636719 22.597656 31.203125 22.066406 30.53125 C 20.960938 29.140625 18.75 28.851562 17.789062 30.003906 Z M 17.789062 30.003906 "/>
<path style=" stroke:none;fill-rule:nonzero;fill:rgb(0%,0%,0%);fill-opacity:1;" d="M 28.367188 35.285156 C 28.367188 35.667969 28.605469 36.003906 28.847656 36.003906 C 29.132812 36.003906 29.328125 35.667969 29.328125 35.285156 C 29.328125 34.902344 29.132812 34.566406 28.847656 34.566406 C 28.605469 34.566406 28.367188 34.902344 28.367188 35.285156 Z M 28.367188 35.285156 "/>
<path style=" stroke:none;fill-rule:nonzero;fill:rgb(0%,0%,0%);fill-opacity:1;" d="M 28.367188 37.6875 C 28.367188 38.070312 28.605469 38.40625 28.847656 38.40625 C 29.132812 38.40625 29.328125 38.070312 29.328125 37.6875 C 29.328125 37.300781 29.132812 36.964844 28.847656 36.964844 C 28.605469 36.964844 28.367188 37.300781 28.367188 37.6875 Z M 28.367188 37.6875 "/>
</g>
</svg>
