<?xml version="1.0" encoding="UTF-8"?>
<svg xmlns="http://www.w3.org/2000/svg" xmlns:xlink="http://www.w3.org/1999/xlink" width="50px" height="45px" viewBox="0 0 50 45" version="1.1">
<g id="surface1">
<path style=" stroke:none;fill-rule:nonzero;fill:rgb(0%,0%,0%);fill-opacity:1;" d="M 9.289062 22.839844 L 9.289062 39.332031 L 39.695312 39.332031 L 39.695312 6.34375 L 9.289062 6.34375 Z M 38.640625 22.839844 L 38.640625 37.851562 L 10.347656 37.851562 L 10.21875 23.261719 C 10.175781 15.226562 10.21875 8.417969 10.347656 8.121094 C 10.472656 7.699219 13.554688 7.613281 24.578125 7.699219 L 38.640625 7.824219 Z M 38.640625 22.839844 "/>
<path style=" stroke:none;fill-rule:nonzero;fill:rgb(0%,0%,0%);fill-opacity:1;" d="M 15.625 8.839844 L 11.613281 9.09375 L 11.613281 36.582031 L 37.375 36.582031 L 37.5 22.710938 L 37.585938 8.882812 L 29.476562 8.882812 C 25 8.882812 20.945312 8.796875 20.480469 8.753906 C 20.015625 8.671875 17.820312 8.710938 15.625 8.839844 Z M 19.003906 10.53125 C 19.003906 11.082031 16.511719 13.109375 15.792969 13.109375 C 15.457031 13.109375 15.203125 13.40625 15.203125 13.746094 C 15.203125 14.082031 15.457031 14.378906 15.75 14.378906 C 16.046875 14.378906 16.679688 14.632812 17.101562 14.972656 C 17.820312 15.480469 17.820312 15.691406 17.3125 16.960938 C 16.257812 19.625 15.203125 20.765625 13.976562 20.640625 L 12.878906 20.511719 L 12.753906 15.308594 L 12.625 10.148438 L 15.835938 10.148438 C 17.566406 10.148438 19.003906 10.320312 19.003906 10.53125 Z M 24.070312 11.671875 C 24.070312 13.28125 23.816406 13.28125 22.085938 11.714844 C 20.734375 10.53125 20.863281 10.148438 22.59375 10.148438 C 23.988281 10.148438 24.070312 10.234375 24.070312 11.671875 Z M 28.714844 11.082031 C 28.714844 11.589844 29.011719 13.109375 29.390625 14.464844 L 30.109375 16.960938 L 28.546875 18.523438 C 27.152344 20.003906 26.605469 21.148438 27.324219 21.148438 C 27.492188 21.148438 28.292969 20.46875 29.136719 19.667969 L 30.660156 18.1875 L 31.882812 19.960938 L 33.066406 21.78125 L 32.304688 24.53125 C 31.882812 26.050781 31.207031 28.886719 30.785156 30.832031 C 29.730469 35.738281 29.898438 35.527344 27.492188 35.527344 L 25.421875 35.527344 L 25.253906 32.523438 C 25.125 29.226562 25.253906 28.71875 26.011719 30.070312 C 26.519531 31 26.519531 31 27.195312 29.648438 C 27.574219 28.929688 28.378906 28.082031 28.925781 27.828125 C 30.277344 27.238281 30.277344 26.390625 28.96875 26.050781 C 28.378906 25.925781 27.746094 25.292969 27.449219 24.53125 C 26.859375 23.050781 26.351562 22.921875 25.972656 24.105469 C 25.335938 26.09375 25.125 24.191406 25.253906 17.382812 L 25.378906 10.148438 L 27.027344 10.148438 C 28.460938 10.148438 28.714844 10.277344 28.714844 11.082031 Z M 36.316406 15.4375 L 36.316406 20.722656 L 35.09375 20.722656 C 34.164062 20.722656 33.65625 20.34375 32.769531 18.988281 L 31.628906 17.296875 L 33.148438 15.394531 C 35.136719 12.984375 34.671875 12.054688 32.515625 14.167969 L 30.953125 15.691406 L 30.40625 13.660156 C 30.152344 12.5625 29.8125 11.292969 29.6875 10.871094 C 29.519531 10.234375 29.855469 10.148438 32.898438 10.148438 L 36.316406 10.148438 Z M 21.15625 14.84375 L 20.058594 15.988281 L 18.917969 14.929688 L 17.777344 13.828125 L 18.917969 12.6875 L 20.058594 11.503906 L 21.15625 12.601562 L 22.253906 13.703125 Z M 24.070312 20.34375 C 24.070312 25.164062 23.988281 26.011719 23.351562 26.476562 C 22.636719 26.984375 22.636719 27.023438 23.351562 27.574219 C 23.988281 28.039062 24.070312 28.675781 23.988281 31.71875 L 23.859375 35.316406 L 19.214844 35.316406 L 18.539062 32.058594 L 17.90625 28.800781 L 19.890625 26.558594 C 22.464844 23.601562 22.128906 22.5 19.425781 25.164062 L 17.441406 27.109375 L 16.679688 24.53125 C 16.046875 22.457031 16.003906 21.78125 16.386719 21.230469 C 16.679688 20.808594 17.3125 19.707031 17.777344 18.695312 C 18.625 16.917969 19.425781 16.664062 19.425781 18.226562 C 19.425781 18.652344 19.722656 19.03125 20.058594 19.03125 C 20.398438 19.03125 20.691406 18.652344 20.691406 18.226562 C 20.691406 17.214844 22.675781 14.800781 23.480469 14.800781 C 23.945312 14.800781 24.070312 15.859375 24.070312 20.34375 Z M 14.484375 22.289062 C 14.1875 22.375 13.683594 22.375 13.429688 22.289062 C 13.132812 22.160156 13.34375 22.078125 13.9375 22.078125 C 14.527344 22.078125 14.738281 22.160156 14.484375 22.289062 Z M 36.023438 22.289062 C 35.726562 22.375 35.136719 22.375 34.753906 22.289062 C 34.332031 22.160156 34.585938 22.078125 35.261719 22.078125 C 35.980469 22.078125 36.273438 22.160156 36.023438 22.289062 Z M 15.960938 26.136719 L 16.597656 28.378906 L 14.949219 30.070312 C 14.0625 30.957031 13.175781 31.71875 13.007812 31.71875 C 12.585938 31.71875 12.542969 24.359375 12.964844 23.9375 C 13.132812 23.769531 13.726562 23.683594 14.316406 23.769531 C 15.160156 23.851562 15.457031 24.277344 15.960938 26.136719 Z M 36.316406 29.605469 L 36.316406 35.527344 L 31.125 35.527344 L 31.417969 33.453125 C 31.800781 30.578125 33.320312 24.824219 33.867188 24.320312 C 34.289062 23.894531 34.25 24.148438 33.53125 27.914062 C 33.363281 28.84375 33.445312 29.183594 33.910156 29.183594 C 34.332031 29.183594 34.628906 28.546875 34.796875 27.152344 C 35.175781 24.488281 35.429688 23.683594 35.9375 23.683594 C 36.148438 23.683594 36.316406 26.222656 36.316406 29.605469 Z M 27.195312 26.519531 C 27.574219 27.53125 26.816406 28.167969 25.972656 27.492188 C 25.464844 27.066406 25.421875 26.8125 25.800781 26.390625 C 26.4375 25.585938 26.859375 25.628906 27.195312 26.519531 Z M 17.566406 33.117188 L 17.863281 35.570312 L 15.414062 35.441406 C 13.9375 35.355469 12.878906 35.101562 12.796875 34.808594 C 12.542969 34.128906 16.511719 29.902344 16.933594 30.324219 C 17.144531 30.535156 17.398438 31.761719 17.566406 33.117188 Z M 17.566406 33.117188 "/>
<path style=" stroke:none;fill-rule:nonzero;fill:rgb(0%,0%,0%);fill-opacity:1;" d="M 26.816406 17.339844 C 26.308594 17.933594 26.183594 18.355469 26.4375 18.609375 C 26.730469 18.90625 27.152344 18.777344 27.660156 18.1875 C 28.167969 17.59375 28.292969 17.171875 28.039062 16.917969 C 27.746094 16.621094 27.324219 16.75 26.816406 17.339844 Z M 26.816406 17.339844 "/>
<path style=" stroke:none;fill-rule:nonzero;fill:rgb(0%,0%,0%);fill-opacity:1;" d="M 20.3125 29.4375 C 19.382812 30.664062 19.257812 31 19.722656 31.425781 C 20.101562 31.804688 22.382812 29.605469 22.382812 28.886719 C 22.382812 27.957031 21.242188 28.25 20.3125 29.4375 Z M 20.3125 29.4375 "/>
</g>
</svg>
